<?xml version="1.0" encoding="UTF-8"?>
<svg width="24" height="24" viewBox="0 0 24 24" fill="none" xmlns="http://www.w3.org/2000/svg">
  <path d="M24 5.5V18.5C24 19.8807 22.8807 21 21.5 21H2.5C1.11929 21 0 19.8807 0 18.5V5.5C0 4.11929 1.11929 3 2.5 3H21.5C22.8807 3 24 4.11929 24 5.5Z" fill="#34A853"/>
  <path d="M24 5.5V6.5L12 13.5L0 6.5V5.5C0 4.11929 1.11929 3 2.5 3H21.5C22.8807 3 24 4.11929 24 5.5Z" fill="#FBBC05"/>
  <path d="M0 6.5L12 13.5L24 6.5V18.5C24 19.8807 22.8807 21 21.5 21H2.5C1.11929 21 0 19.8807 0 18.5V6.5Z" fill="#EA4335"/>
  <path d="M0 6.5L8 12L12 13.5L16 12L24 6.5V18.5C24 19.8807 22.8807 21 21.5 21H2.5C1.11929 21 0 19.8807 0 18.5V6.5Z" fill="#C5221F"/>
</svg> 