<svg xmlns="http://www.w3.org/2000/svg" viewBox="0 0 24 24" fill="currentColor">
  <path d="M12 2C6.477 2 2 6.477 2 12s4.477 10 10 10 10-4.477 10-10S17.523 2 12 2zm4.5 14.424c-.18.295-.565.39-.86.21-2.357-1.44-5.324-1.766-8.815-.97-.34.08-.69-.13-.77-.47-.08-.34.13-.69.47-.77 3.835-.874 7.104-.496 9.745 1.123.295.18.39.565.21.86l.02-.003zm1.23-2.74c-.227.367-.71.482-1.077.255-2.698-1.66-6.804-2.14-9.996-1.17-.42.127-.863-.106-.99-.525-.127-.42.106-.863.525-.99 3.632-1.106 8.171-.568 11.294 1.353.367.227.482.71.255 1.077h-.01zm.106-2.854C15.32 8.852 8.91 8.628 5.19 9.876c-.49.164-1.01-.1-1.174-.59-.164-.49.1-1.01.59-1.174 4.273-1.435 11.37-1.16 15.724 1.347.44.253.59.815.337 1.255-.253.44-.815.59-1.255.337l.024-.014z"/>
</svg>